<svg aria-hidden="true" style="position: absolute; width: 0; height: 0; overflow: hidden;" version="1.1" xmlns="http://www.w3.org/2000/svg" xmlns:xlink="http://www.w3.org/1999/xlink">
<defs>
<symbol id="icon-search" viewBox="0 0 32 32">
<path d="M25.44 22.933l6.044 6.027c0.325 0.322 0.526 0.769 0.526 1.262s-0.201 0.94-0.526 1.262l-0 0c-0.322 0.325-0.769 0.526-1.262 0.526s-0.94-0.201-1.262-0.526l-0-0-6.027-6.044c-2.369 1.873-5.399 3.004-8.694 3.004-0.006 0-0.012 0-0.018 0h0.001c-7.855 0-14.222-6.367-14.222-14.222s6.367-14.222 14.222-14.222c7.855 0 14.222 6.367 14.222 14.222v0c0 0.005 0 0.011 0 0.018 0 3.294-1.131 6.325-3.027 8.723l0.023-0.030zM14.222 3.556c-5.891 0-10.667 4.776-10.667 10.667s4.776 10.667 10.667 10.667v0c5.891 0 10.667-4.776 10.667-10.667s-4.776-10.667-10.667-10.667v0z"></path>
</symbol>
<symbol id="icon-bookmark" viewBox="0 0 28 32">
<path d="M24.62 0c0.324 0 0.634 0.064 0.93 0.19 0.464 0.184 0.834 0.472 1.11 0.868 0.274 0.394 0.412 0.832 0.412 1.31v27.264c0 0.48-0.138 0.916-0.412 1.31-0.274 0.39-0.652 0.69-1.094 0.862l-0.016 0.006c-0.261 0.107-0.563 0.169-0.88 0.169-0.018 0-0.037-0-0.055-0.001l0.003 0c-0.676 0-1.26-0.224-1.754-0.676l-9.328-8.968-9.328 8.968c-0.452 0.432-1.065 0.698-1.741 0.698-0.005 0-0.009 0-0.014-0h0.001c-0.324 0-0.636-0.064-0.932-0.19-0.458-0.178-0.836-0.478-1.105-0.86l-0.005-0.008c-0.258-0.36-0.412-0.81-0.412-1.296 0-0.005 0-0.010 0-0.015v0.001-27.264c0-0.48 0.138-0.916 0.412-1.308 0.276-0.4 0.648-0.686 1.11-0.87 0.272-0.12 0.59-0.19 0.924-0.19 0.003 0 0.006 0 0.009 0h22.164z"></path>
</symbol>
<symbol id="icon-tv" viewBox="0 0 32 32">
<path d="M14.528 7.17h17.472v24.83h-32v-24.83h7.872l-4.32-5.246 2.496-1.878 5.152 6.208 5.152-6.254 2.496 1.924-4.32 5.246zM3.2 28.896h16v-18.622h-16v18.622zM27.2 22.688h-3.2v-3.104h3.2v3.104zM24 16.482h3.2v-3.104h-3.2v3.102z"></path>
</symbol>
<symbol id="icon-film" viewBox="0 0 32 32">
<path d="M27.128 0h-22.256c-2.691 0-4.872 2.181-4.872 4.872v0 22.256c0 2.691 2.181 4.872 4.872 4.872v0h22.256c0.001 0 0.001 0 0.002 0 2.69 0 4.87-2.18 4.87-4.87 0-0.001 0-0.001 0-0.002v0-22.256c0-0.001 0-0.001 0-0.002 0-2.69-2.18-4.87-4.87-4.87-0.001 0-0.001 0-0.002 0h0zM6.4 14.4h-3.2v-3.2h3.2v3.2zM6.4 17.6h-3.2v3.2h3.2v-3.2zM28.8 14.4h-3.2v-3.2h3.2v3.2zM28.8 17.6h-3.2v3.2h3.2v-3.2zM28.8 4.384v2.016h-3.2v-3.2h2.016c0.654 0 1.184 0.53 1.184 1.184v0zM6.4 3.2h-2.016c-0.654 0-1.184 0.53-1.184 1.184v0 2.016h3.2v-3.2zM3.2 27.616v-2.016h3.2v3.2h-2.016c-0.654 0-1.184-0.53-1.184-1.184v0zM25.6 28.8h2.016c0.654 0 1.184-0.53 1.184-1.184v0-2.016h-3.2v3.2z"></path>
</symbol>
<symbol id="icon-windows" viewBox="0 0 32 32">
<path d="M1.6 0h11.2c0.96 0 1.6 0.64 1.6 1.6v11.2c0 0.96-0.64 1.6-1.6 1.6h-11.2c-0.96 0-1.6-0.64-1.6-1.6v-11.2c0-0.96 0.64-1.6 1.6-1.6zM1.6 17.6h11.2c0.96 0 1.6 0.64 1.6 1.6v11.2c0 0.96-0.64 1.6-1.6 1.6h-11.2c-0.96 0-1.6-0.64-1.6-1.6v-11.2c0-0.96 0.64-1.6 1.6-1.6zM30.4 0h-11.2c-0.96 0-1.6 0.64-1.6 1.6v11.2c0 0.96 0.64 1.6 1.6 1.6h11.2c0.96 0 1.6-0.64 1.6-1.6v-11.2c0-0.96-0.64-1.6-1.6-1.6zM19.2 17.6h11.2c0.96 0 1.6 0.64 1.6 1.6v11.2c0 0.96-0.64 1.6-1.6 1.6h-11.2c-0.96 0-1.6-0.64-1.6-1.6v-11.2c0-0.96 0.64-1.6 1.6-1.6z"></path>
</symbol>
<symbol id="icon_logo" viewBox="0 0 40 32">
<path d="M32 0l4 8h-6l-4-8h-4l4 8h-6l-4-8h-4l4 8h-6l-4-8h-2c-2.198 0.002-3.979 1.784-3.979 3.982 0 0.006 0 0.012 0 0.019v-0.001l-0.021 24c0 2.209 1.791 4 4 4v0h32c2.209 0 4-1.791 4-4v0-28h-8z"></path>
</symbol>
</defs>
</svg>
